<svg id="_0152_step_2" xmlns="http://www.w3.org/2000/svg" viewBox="0 0 500 500" data-imageid="step-two-63" imageName="Step Two" class="illustrations_image" style="width: 178px;"><defs><style>.cls-1_step-two-63{fill:#fff;}.cls-2_step-two-63{fill:#f4a28c;}.cls-3_step-two-63{opacity:.46;}.cls-3_step-two-63,.cls-4_step-two-63,.cls-5_step-two-63,.cls-6_step-two-63,.cls-7_step-two-63,.cls-8_step-two-63{fill:none;}.cls-4_step-two-63{opacity:.58;}.cls-9_step-two-63{fill:#ce8172;}.cls-10_step-two-63{fill:#e6e6e6;}.cls-5_step-two-63{opacity:.03;}.cls-6_step-two-63{opacity:.73;}.cls-7_step-two-63{opacity:.08;}.cls-8_step-two-63{opacity:.31;}.cls-11_step-two-63{fill:#24285b;}.cls-12_step-two-63{fill:#000001;}.cls-13_step-two-63{fill:#ffd200;}.cls-14_step-two-63{fill:#68e1fd;}</style></defs><g id="sd_step-two-63" class="cls-5_step-two-63"><ellipse class="cls-12_step-two-63" cx="266.34" cy="463.66" rx="223.73" ry="16.53"/></g><g id="_1_step-two-63"><rect class="cls-10_step-two-63" x="83.43" y="355.07" width="92.28" height="108.59"/></g><g id="_3_step-two-63"><rect class="cls-10_step-two-63" x="333.57" y="191.98" width="92.28" height="271.68"/></g><g id="plant_step-two-63"><g class="cls-4_step-two-63"><path class="cls-14_step-two-63 targetColor" d="m454.48,448.7s-12.72-3.47-15.48-15.31c0,0,19.7-3.98,20.27,16.36l-4.78-1.05Z" style="fill: rgb(104, 225, 253);"/></g><g class="cls-6_step-two-63"><path class="cls-14_step-two-63 targetColor" d="m456.04,447.43s-8.88-14.05-1.07-27.18c0,0,14.98,9.51,8.33,27.21l-7.26-.03Z" style="fill: rgb(104, 225, 253);"/></g><path class="cls-14_step-two-63 targetColor" d="m458.33,447.44s4.69-14.83,18.88-17.64c0,0,2.66,9.63-9.19,17.68l-9.7-.04Z" style="fill: rgb(104, 225, 253);"/><polygon class="cls-11_step-two-63" points="449.1 447.11 451.68 464.75 467.92 464.82 470.31 447.2 449.1 447.11"/></g><g id="_2_step-two-63"><rect class="cls-13_step-two-63" x="209.26" y="290.64" width="92.28" height="173.02"/><path class="cls-11_step-two-63" d="m244.67,393.7v-3.35c0-5.69,4.22-7.65,8.11-9.33,3.35-1.42,6.48-2.64,6.48-5.81,0-1.63-1.09-2.76-2.89-2.76s-2.72.79-3.64,2.76c-.59,1.3-1,1.55-2.26,1.13l-4.43-1.67c-1.21-.42-1.59-1-1.09-2.22,1.71-4.35,5.23-7.32,11.67-7.32,7.03,0,11.04,4.35,11.04,9.7,0,6.48-3.09,8.87-9.45,11.13-2.26.75-4.94,1.13-4.94,2.17v.25h12c1.34,0,1.8.46,1.8,1.8v3.51c0,1.3-.46,1.76-1.8,1.76h-18.82c-1.34,0-1.8-.46-1.8-1.76Z"/></g><g id="person_step-two-63"><path class="cls-14_step-two-63 targetColor" d="m190.9,87.39c-7.64,9.19-6.19,22.87,3.23,30.22,19.79,15.45,48.38,42.92,77.36,44.11,37.56,1.54,52.05-79.76,52.05-79.76l-14.38-4.85s-17.53,104.84-81.65,9.09c-8.17-12.19-27.23-10.1-36.61,1.19h0Z" style="fill: rgb(104, 225, 253);"/><g class="cls-3_step-two-63"><path class="cls-1_step-two-63" d="m190.9,87.39c-7.64,9.19-6.19,22.87,3.23,30.22,19.79,15.45,48.38,42.92,77.36,44.11,37.56,1.54,52.05-79.76,52.05-79.76l-14.38-4.85s-17.53,104.84-81.65,9.09c-8.17-12.19-27.23-10.1-36.61,1.19h0Z"/></g><path class="cls-14_step-two-63 targetColor" d="m254.97,278.34s4.73,3.33,9,.84c4.26-2.49,8.08.71,5.18,4.28-2.9,3.57-15.5,5.47-15.5,5.47l-4.84-7.61,6.17-2.99Z" style="fill: rgb(104, 225, 253);"/><path class="cls-14_step-two-63 targetColor" d="m105.09,317.72s-2.76,5.09.2,9.03c2.96,3.95.23,8.11-3.65,5.64-3.88-2.47-7.23-14.77-7.23-14.77l6.99-5.69,3.68,5.78Z" style="fill: rgb(104, 225, 253);"/><path class="cls-2_step-two-63" d="m214.52,34.2s-2.33,9.66-6.01,15.38c-1.49,2.32-4.63,3-6.92,1.47-2.85-1.89-6.16-5.28-5.53-10.61l-.06-9.18s.17-5.75,6.76-7.79c6.59-2.04,13.48,4.91,11.76,10.72Z"/><polygon class="cls-2_step-two-63" points="196.01 32.93 180.93 61.8 197.43 68.97 201.78 45.08 196.01 32.93"/><path class="cls-11_step-two-63" d="m212.06,33.81c-1.67-.47-4.69-1.49-8.46-3.58,0,0,1.57,5.09-2.89,8.62-4.46,3.53-8.59-.04-8.59-.04l4.22-12.05c1.12-3.55,4.08-6.22,7.74-6.93,1.49-.29,3.12-.53,4.71-.62,3.95-.23,8.28,3.81,12.19,2.5,1.72-.57,3.42.92,3.1,2.7-.69,3.87-3.29,9.44-8.95,9.78-1.04.06-2.06-.11-3.06-.39Z"/><path class="cls-2_step-two-63" d="m201.8,38.9s1.15-3.65-1.67-4.29c-2.82-.64-4.51,4.63-.97,6.36l2.64-2.08Z"/><path class="cls-2_step-two-63" d="m212.74,40.21l1.41,4.51c.35,1.11-.58,2.21-1.74,2.05l-3.83-.53,4.16-6.03Z"/><g class="cls-8_step-two-63"><path class="cls-9_step-two-63" d="m201.05,50.35s-2.93-1.7-4.41-5.14c0,0-1.65,5.73,2.68,13.39l1.73-8.25Z"/></g><path class="cls-14_step-two-63 targetColor" d="m180.93,61.8l11.23,4.88c2.74,1.19,5.53,2.25,8.39,3.11,9.16,2.75,35.54,13.3,38,44.14,2.98,37.37-52.95,82.84-52.95,82.84l-58.73-19.52s-30.17-140.35,54.06-115.45Z" style="fill: rgb(104, 225, 253);"/><path class="cls-2_step-two-63" d="m311.87,78.02s.43-17.26,6.08-20.98c5.65-3.72,1.4,12.59,1.4,12.59,0,0,13.39,1.22,4.18,12.32l-11.66-3.93Z"/><path class="cls-2_step-two-63" d="m317.87,71.54s6.33-14.31,9.8-12.02c3.46,2.29-5.53,15.12-5.53,15.12l-4.27-3.1Z"/><path class="cls-11_step-two-63" d="m126.87,177.25s-11.52,37.35,16.84,44.96c28.36,7.61,79.59-10.46,103.67,60.09l11.13-5.3s-1.53-62.66-65.79-86.46l-65.85-13.28Z"/><path class="cls-11_step-two-63" d="m134.88,194.68s32.25,61.84-36.81,111.58l7.02,11.46s71.77-25.5,72.87-114.16l-43.08-8.88Z"/><g class="cls-7_step-two-63"><path class="cls-12_step-two-63" d="m177.96,95.11s-1.05,15.07-21.11,32.69c-20.06,17.63,2.36,55.97,2.36,55.97l-32.35-6.53s-8.7-45.83-3.62-74.66c5.08-28.83,53.06-7.47,53.06-7.47h1.65Z"/></g><path class="cls-14_step-two-63 targetColor" d="m148.37,57.74c-36.26-1.03-113.33,8.56-90.09,112.76h16.08s2.02-76.68,68.23-67.86c2.48.33,4.95.58,7.45.59,11.18.05,38.14-2.09,28.97-24.71-5.03-12.41-17.27-20.39-30.65-20.77Z" style="fill: rgb(104, 225, 253);"/><g class="cls-3_step-two-63"><path class="cls-1_step-two-63" d="m148.37,57.74c-36.26-1.03-113.33,8.56-90.09,112.76h16.08s2.02-76.68,68.23-67.86c2.48.33,4.95.58,7.45.59,11.18.05,38.14-2.09,28.97-24.71-5.03-12.41-17.27-20.39-30.65-20.77Z"/></g><path class="cls-2_step-two-63" d="m71.51,170.5s1.82,8.56-1.3,15.56c-3.11,7-8.56,8.3-12.97,5.45-4.41-2.85,5.71-14.27,5.71-14.27l-2.33-6.74h10.89Z"/></g></svg>